<?xml version="1.0" encoding="UTF-8"?>
<!DOCTYPE svg PUBLIC "-//W3C//DTD SVG 1.1//EN" "http://www.w3.org/Graphics/SVG/1.1/DTD/svg11.dtd">
<svg xmlns="http://www.w3.org/2000/svg" version="1.1" width="1024px" height="1024px" style="shape-rendering:geometricPrecision; text-rendering:geometricPrecision; image-rendering:optimizeQuality; fill-rule:evenodd; clip-rule:evenodd" xmlns:xlink="http://www.w3.org/1999/xlink">
<g><path style="opacity:1" fill="#fee4cb" d="M -0.5,-0.5 C 340.833,-0.5 682.167,-0.5 1023.5,-0.5C 1023.5,340.833 1023.5,682.167 1023.5,1023.5C 682.167,1023.5 340.833,1023.5 -0.5,1023.5C -0.5,682.167 -0.5,340.833 -0.5,-0.5 Z"/></g>
<g><path style="opacity:1" fill="#fdf0da" d="M 700.5,282.5 C 681.654,279.235 662.654,277.568 643.5,277.5C 632.341,276.669 621.007,276.169 609.5,276C 641.068,274.611 672.401,276.611 703.5,282C 702.552,282.483 701.552,282.649 700.5,282.5 Z"/></g>
<g><path style="opacity:1" fill="#bb8792" d="M 534.5,618.5 C 534.916,623.493 535.249,628.493 535.5,633.5C 535.231,635.429 535.731,637.095 537,638.5C 537.5,628.172 537.666,617.839 537.5,607.5C 538.138,522.666 538.138,437.999 537.5,353.5C 537.5,347.167 537.5,340.833 537.5,334.5C 539.209,301.293 556.542,282.793 589.5,279C 607.472,277.671 625.472,277.171 643.5,277.5C 662.654,277.568 681.654,279.235 700.5,282.5C 778.631,298.467 819.631,346.3 823.5,426C 822.675,476.342 801.342,515.009 759.5,542C 779.903,578.649 803.403,613.149 830,645.5C 840.773,664.004 839.44,681.671 826,698.5C 805.76,721.619 781.26,727.452 752.5,716C 735.378,705.212 721.212,691.378 710,674.5C 691.129,644.09 673.295,613.09 656.5,581.5C 656.013,580.527 655.513,579.527 655,578.5C 654.667,609.5 654.333,640.5 654,671.5C 653.535,675.848 653.035,680.181 652.5,684.5C 646.838,703.657 634.171,715.491 614.5,720C 600.073,722.306 585.739,721.972 571.5,719C 552.488,711.995 541.655,698.495 539,678.5C 533.346,702.151 518.513,716.318 494.5,721C 469.284,725.453 449.118,717.62 434,697.5C 431.075,691.725 428.742,685.725 427,679.5C 423,657.499 419,635.499 415,613.5C 412.973,610.761 410.14,609.428 406.5,609.5C 379.5,609.5 352.5,609.5 325.5,609.5C 321.79,609.225 318.957,610.558 317,613.5C 311.921,634.891 306.588,656.224 301,677.5C 294.594,702.907 278.427,717.407 252.5,721C 228.513,725.074 208.346,718.241 192,700.5C 182.998,686.852 179.665,671.852 182,655.5C 203.513,551.631 233.513,450.298 272,351.5C 279.48,334.529 288.48,318.529 299,303.5C 327.292,272.551 361.459,263.717 401.5,277C 419.706,284.869 433.872,297.369 444,314.5C 460.443,345.813 473.776,378.479 484,412.5C 504.348,480.434 521.181,549.101 534.5,618.5 Z"/></g>
<g><path style="opacity:1" fill="#fdf2e1" d="M 537.5,334.5 C 537.5,340.833 537.5,347.167 537.5,353.5C 536.589,438.162 536.256,522.829 536.5,607.5C 536.826,616.349 536.493,625.016 535.5,633.5C 535.249,628.493 534.916,623.493 534.5,618.5C 535.333,530.001 535.833,441.334 536,352.5C 536.172,346.319 536.672,340.319 537.5,334.5 Z"/></g>
<g><path style="opacity:1" fill="#d7e0d7" d="M 799.5,405.5 C 800.935,412.615 801.602,419.948 801.5,427.5C 801.499,432.013 801.166,436.347 800.5,440.5C 800.566,428.819 800.233,417.152 799.5,405.5 Z"/></g>
<g><path style="opacity:1" fill="#c4f1d9" d="M 682.5,302.5 C 713.955,304.497 741.622,315.664 765.5,336C 785.412,354.808 796.745,377.974 799.5,405.5C 800.233,417.152 800.566,428.819 800.5,440.5C 795.214,480.612 774.547,509.778 738.5,528C 734.178,532.861 733.345,538.361 736,544.5C 752.082,573.008 769.416,600.675 788,627.5C 798.154,638.651 807.154,650.651 815,663.5C 815.75,669.928 814.417,675.928 811,681.5C 801.136,696.462 787.303,702.295 769.5,699C 758.465,695.636 749.299,689.469 742,680.5C 732.55,669.053 723.884,657.053 716,644.5C 700.998,617.828 685.998,591.161 671,564.5C 665.145,555.655 656.979,551.822 646.5,553C 639.586,555.746 634.919,560.579 632.5,567.5C 631.668,601.998 631.168,636.664 631,671.5C 630.39,674.827 629.89,678.161 629.5,681.5C 626.183,691.524 619.183,697.357 608.5,699C 599.5,699.667 590.5,699.667 581.5,699C 574.081,697.543 568.248,693.71 564,687.5C 561.24,681.459 559.573,675.126 559,668.5C 558.159,557.496 558.492,446.496 560,335.5C 559.762,313.572 570.595,302.238 592.5,301.5C 622.526,299.958 652.526,300.291 682.5,302.5 Z"/></g>
<g><path style="opacity:1" fill="#ddf6e8" d="M 682.5,302.5 C 652.526,300.291 622.526,299.958 592.5,301.5C 593.952,300.698 595.618,300.198 597.5,300C 619.167,299.333 640.833,299.333 662.5,300C 669.354,300.515 676.02,301.348 682.5,302.5 Z"/></g>
<g><path style="opacity:1" fill="#fec9d2" d="M 357.5,293.5 C 386.929,290.136 409.429,300.802 425,325.5C 437.801,349.565 448.468,374.565 457,400.5C 482.951,480.97 502.617,562.97 516,646.5C 517.753,657.189 517.753,667.855 516,678.5C 511.692,690.42 503.192,697.253 490.5,699C 476.263,702.236 464.096,698.736 454,688.5C 451.427,684.455 449.427,680.122 448,675.5C 444.341,656.898 441.008,638.231 438,619.5C 436.838,613.016 435.171,606.683 433,600.5C 430.768,595.269 426.935,591.769 421.5,590C 417.205,589.088 412.872,588.421 408.5,588C 378.5,587.333 348.5,587.333 318.5,588C 308.401,588.293 301.567,593.127 298,602.5C 291.487,627.555 284.82,652.555 278,677.5C 273.628,690.209 264.795,697.375 251.5,699C 241.694,700.073 232.028,699.406 222.5,697C 206.171,688.412 200.004,674.912 204,656.5C 224.528,561.587 251.528,468.587 285,377.5C 292.639,356.554 302.639,336.888 315,318.5C 326.286,305.113 340.453,296.779 357.5,293.5 Z"/></g>
<g><path style="opacity:1" fill="#bb8892" d="M 644.5,370.5 C 665.876,368.429 685.543,373.095 703.5,384.5C 724.585,403.269 729.752,425.935 719,452.5C 709.05,471.095 693.55,481.928 672.5,485C 661.485,485.832 650.485,485.666 639.5,484.5C 635.556,481.533 633.39,477.533 633,472.5C 632.333,442.5 632.333,412.5 633,382.5C 634.357,375.979 638.19,371.979 644.5,370.5 Z"/></g>
<g><path style="opacity:1" fill="#fdd9d8" d="M 665.5,393.5 C 662.167,393.5 658.833,393.5 655.5,393.5C 655.5,416.833 655.5,440.167 655.5,463.5C 654.502,440.006 654.169,416.339 654.5,392.5C 658.371,392.185 662.038,392.518 665.5,393.5 Z"/></g>
<g><path style="opacity:1" fill="#fee5cc" d="M 665.5,393.5 C 690.288,395.451 702.454,408.784 702,433.5C 699.18,449.654 689.68,459.154 673.5,462C 667.565,463.239 661.565,463.739 655.5,463.5C 655.5,440.167 655.5,416.833 655.5,393.5C 658.833,393.5 662.167,393.5 665.5,393.5 Z"/></g>
<g><path style="opacity:1" fill="#b28486" d="M 537.5,353.5 C 538.138,437.999 538.138,522.666 537.5,607.5C 537.167,607.5 536.833,607.5 536.5,607.5C 536.256,522.829 536.589,438.162 537.5,353.5 Z"/></g>
<g><path style="opacity:1" fill="#bb8792" d="M 360.5,396.5 C 368.815,394.745 375.648,397.079 381,403.5C 394.309,433.092 404.642,463.759 412,495.5C 415.486,509.394 410.319,517.56 396.5,520C 376.167,520.667 355.833,520.667 335.5,520C 321.55,516.952 316.717,508.452 321,494.5C 329.16,464.518 339.16,435.185 351,406.5C 353.696,402.639 356.863,399.306 360.5,396.5 Z"/></g>
<g><path style="opacity:1" fill="#fee5cd" d="M 366.5,424.5 C 367.79,425.058 368.623,426.058 369,427.5C 376.681,451.041 383.848,474.708 390.5,498.5C 374.5,498.5 358.5,498.5 342.5,498.5C 349.891,473.66 357.891,448.994 366.5,424.5 Z"/></g>
<g><path style="opacity:1" fill="#e4f8ec" d="M 632.5,567.5 C 632.667,603.168 632.5,638.835 632,674.5C 631.844,677.191 631.011,679.524 629.5,681.5C 629.89,678.161 630.39,674.827 631,671.5C 631.168,636.664 631.668,601.998 632.5,567.5 Z"/></g>
<g><path style="opacity:1" fill="#fef8e5" d="M 325.5,609.5 C 352.5,609.5 379.5,609.5 406.5,609.5C 378.949,610.357 351.283,610.857 323.5,611C 324.416,610.722 325.082,610.222 325.5,609.5 Z"/></g>
<g><path style="opacity:1" fill="#cda6a0" d="M 536.5,607.5 C 536.833,607.5 537.167,607.5 537.5,607.5C 537.666,617.839 537.5,628.172 537,638.5C 535.731,637.095 535.231,635.429 535.5,633.5C 536.493,625.016 536.826,616.349 536.5,607.5 Z"/></g>
<g><path style="opacity:1" fill="#fdece5" d="M 656.5,581.5 C 655.668,611.997 655.168,642.664 655,673.5C 654.667,676.833 654.333,680.167 654,683.5C 653.617,684.056 653.117,684.389 652.5,684.5C 653.035,680.181 653.535,675.848 654,671.5C 654.333,640.5 654.667,609.5 655,578.5C 655.513,579.527 656.013,580.527 656.5,581.5 Z"/></g>
</svg>
